HIERARCHY
ROOT Hips
{
	OFFSET 0.00000 0.00000 0.00000
	CHANNELS 6 Xposition Yposition Zposition Zrotation Yrotation Xrotation 
	JOINT RightUpLegDummy
	{
		OFFSET 0 0 0
		CHANNELS 3 Zrotation Yrotation Xrotation
		JOINT RightUpLeg
		{
			OFFSET -3.52197 -3.41223 0.04002
			CHANNELS 3 Zrotation Yrotation Xrotation
			JOINT RightLeg
			{
				OFFSET 0.00006 -17.42390 1.60435
				CHANNELS 3 Zrotation Yrotation Xrotation
				JOINT RightFoot
				{
					OFFSET 0.06153 -16.50078 -1.63901
					CHANNELS 3 Zrotation Yrotation Xrotation
					JOINT RightToes
					{
						OFFSET 0.00298 -1.73825 3.34613
						CHANNELS 3 Zrotation Yrotation Xrotation
						End Site
						{
							OFFSET 0.00480 -0.05416 3.85043
						}
					}
				}
			}
		}
	}
	JOINT SpineDummy
	{
		OFFSET 0 0 0
		CHANNELS 3 Zrotation Yrotation Xrotation
		JOINT Spine
		{
			OFFSET 0.00000 4.68130 0.00000
			CHANNELS 3 Zrotation Yrotation Xrotation
			JOINT Spine1
			{
				OFFSET -0.00000 10.10138 0.05002
				CHANNELS 3 Zrotation Yrotation Xrotation
				JOINT HEadDummy
				{
					OFFSET 0 0 0
					CHANNELS 3 Zrotation Yrotation Xrotation
					JOINT Head
					{
						OFFSET -0.00000 3.43865 0.00438
						CHANNELS 3 Zrotation Yrotation Xrotation
						End Site
						{
							OFFSET -0.11417 5.02924 0.98962
						}
					}
				}
				JOINT LeftShoulder1Dummy
				{
					OFFSET 0 0 0
					CHANNELS 3 Zrotation Yrotation Xrotation
					JOINT LeftShoulder1
					{
						OFFSET 3.53937 -0.14262 -0.08662
						CHANNELS 3 Zrotation Yrotation Xrotation
						JOINT LeftArm
						{
							OFFSET 4.04833 -0.00133 0.12681
							CHANNELS 3 Zrotation Yrotation Xrotation
							JOINT LeftForeArm
							{
								OFFSET 10.33880 -0.01036 -0.55515
								CHANNELS 3 Zrotation Yrotation Xrotation
								JOINT LeftHand
								{
									OFFSET 8.69677 0.07543 0.40060
									CHANNELS 3 Zrotation Yrotation Xrotation
									End Site
									{
										OFFSET 5.28377 -0.21905 0.59205
									}
								}
							}
						}
					}
				}
				JOINT RightShoulderDummy
				{
					OFFSET 0 0 0
					CHANNELS 3 Zrotation Yrotation Xrotation
					JOINT RightShoulder
					{
						OFFSET -3.53937 -0.14262 -0.08660
						CHANNELS 3 Zrotation Yrotation Xrotation
						JOINT RightArm
						{
							OFFSET -4.04833 -0.00133 0.12683
							CHANNELS 3 Zrotation Yrotation Xrotation
							JOINT RightForeArm
							{
								OFFSET -10.37987 -0.01039 -0.55511
								CHANNELS 3 Zrotation Yrotation Xrotation
								JOINT RightHand
								{
									OFFSET -8.67398 0.07538 0.40058
									CHANNELS 3 Zrotation Yrotation Xrotation
									End Site
									{
										OFFSET -5.24810 -0.21916 0.59204
									}
								}
							}
						}
					}
				}
			}
		}
	}
	JOINT LeftUpLegDummy
	{
		OFFSET 0 0 0
		CHANNELS 3 Zrotation Yrotation Xrotation
		JOINT LeftUpLeg
		{
			OFFSET 3.52197 -3.41223 0.04002
			CHANNELS 3 Zrotation Yrotation Xrotation
			JOINT LeftLeg
			{
				OFFSET -0.00012 -17.42399 1.60337
				CHANNELS 3 Zrotation Yrotation Xrotation
				JOINT LeftFoot
				{
					OFFSET -0.09972 -16.50070 -1.63802
					CHANNELS 3 Zrotation Yrotation Xrotation
					JOINT LeftToes
					{
						OFFSET -0.01575 -1.73823 3.34611
						CHANNELS 3 Zrotation Yrotation Xrotation
						End Site
						{
							OFFSET 0.03150 -0.01868 3.85031
						}
					}
				}
			}
		}
	}
}
MOTION
Frames: 17
Frame Time: 0.033333
-23.0634 37.2143 65.9503 164.6410 71.9002 172.8790 0.0000 0.0000 0.0000 6.5183 -5.1639 7.5215 24.3117 42.4136 28.3531 20.3268 -4.4628 13.6017 0.0000 -0.0000 -0.0000 0.0000 0.0000 0.0000 -0.9788 6.5942 7.9716 -4.4794 7.5296 -1.8219 -0.0000 0.0000 -0.0000 -7.0026 29.3794 -16.5660 -0.0000 0.0000 -0.0000 -34.0894 -2.6433 2.4662 -37.9824 0.6265 -28.5478 -5.8130 5.0764 51.3902 14.5669 -3.0628 -1.0373 -0.0000 0.0000 -0.0000 35.7868 5.3582 3.7066 44.0354 5.5943 -8.1852 13.0164 2.7358 27.1316 -9.9758 2.3941 -0.6489 0.0000 0.0000 0.0000 -13.6309 1.1651 -31.6197 1.3355 11.4045 19.3109 3.0134 -0.1569 -4.2552 0.0000 0.0000 -0.0000
-21.8646 37.1964 65.9524 162.9250 72.4654 170.5550 0.0000 0.0000 0.0000 4.4507 -8.9368 4.2377 23.0296 31.4534 33.8230 30.9589 -7.3170 15.0269 0.0000 -0.0000 -0.0000 0.0000 0.0000 0.0000 -1.1143 6.2854 9.9499 -5.0930 7.2777 -2.6247 -0.0000 0.0000 -0.0000 -8.8104 29.9427 -19.2679 -0.0000 0.0000 -0.0000 -33.7095 -2.7638 2.4904 -38.6656 -1.1804 -28.7996 -5.4528 5.0950 50.8664 14.3153 -2.7119 -0.9778 -0.0000 0.0000 -0.0000 35.2584 5.2937 3.6321 44.1280 6.4355 -5.0461 12.9384 5.1749 25.0356 -10.2628 2.3419 -0.6641 0.0000 0.0000 0.0000 -15.8884 6.1005 -31.1136 1.2283 5.9514 22.8449 4.5295 -0.1912 -5.6236 0.0000 0.0000 -0.0000
-20.6258 37.3124 65.8260 162.6130 73.5022 169.2620 0.0000 0.0000 0.0000 2.7067 -11.3181 0.7456 18.5580 19.4264 39.9275 28.0498 -5.8874 11.9452 0.0000 -0.0000 -0.0000 0.0000 0.0000 0.0000 -0.5256 5.8716 10.6925 -5.1612 6.8917 -2.4435 -0.0000 0.0000 -0.0000 -9.8444 31.3222 -20.0130 -0.0000 0.0000 -0.0000 -33.6561 -2.8239 2.5108 -39.6763 -2.7237 -27.5552 -6.2753 5.1548 48.6330 14.3476 -2.8006 -0.9906 -0.0000 0.0000 -0.0000 34.9303 5.2559 3.5873 43.4855 7.3267 1.1836 12.3220 8.7292 20.9495 -10.6520 2.5330 -0.7063 0.0000 0.0000 0.0000 -15.5800 8.2054 -29.2309 1.4049 4.6312 24.9297 5.5512 -0.1222 -7.8560 0.0000 0.0000 -0.0000
-19.2846 37.5644 65.6625 163.9270 74.2186 169.5950 0.0000 0.0000 0.0000 1.4093 -12.7696 -2.6947 12.4769 10.3280 45.8092 19.6125 -3.0911 6.5463 0.0000 -0.0000 -0.0000 0.0000 0.0000 0.0000 -0.0212 5.2212 10.6325 -4.4128 6.1138 -2.4615 -0.0000 0.0000 -0.0000 -9.2777 33.1606 -18.3855 -0.0000 0.0000 -0.0000 -33.7547 -2.7846 2.5015 -40.6633 -3.9016 -25.4435 -7.6590 5.2092 46.2888 14.5588 -3.3783 -1.0739 -0.0000 0.0000 -0.0000 34.8769 5.2467 3.5787 42.6761 7.2062 9.4463 10.1952 13.3025 14.0988 -11.1184 2.8575 -0.7669 0.0000 0.0000 0.0000 -13.9556 8.8131 -26.3643 1.3848 4.7642 25.5947 5.9297 -0.0325 -9.6111 0.0000 0.0000 -0.0000
-17.8721 37.8619 65.5478 166.7170 74.1714 171.3540 0.0000 0.0000 0.0000 0.4584 -13.5932 -5.9296 4.8564 3.4488 50.5575 12.3170 -1.4206 1.9311 0.0000 -0.0000 -0.0000 0.0000 0.0000 0.0000 0.1180 4.4334 10.4474 -2.9548 5.0585 -2.8419 -0.0000 0.0000 -0.0000 -7.4842 34.5339 -15.5276 -0.0000 0.0000 -0.0000 -33.5660 -2.6973 2.4551 -41.7494 -5.5319 -23.0972 -8.9539 5.2471 44.4007 14.5069 -4.0817 -1.1528 -0.0000 0.0000 -0.0000 34.8611 5.2364 3.5731 42.1100 6.0142 16.1755 6.6186 17.6882 5.3631 -11.4811 2.9953 -0.8054 0.0000 0.0000 0.0000 -12.2965 9.9912 -22.9569 0.9118 3.7237 25.5400 5.3907 0.0517 -11.0487 0.0000 0.0000 -0.0000
-16.4593 38.1313 65.4746 170.5810 73.6417 173.9400 0.0000 0.0000 0.0000 -0.1037 -13.5531 -8.8680 -4.2597 -2.3236 54.0266 6.7568 -0.5699 -1.8156 0.0000 -0.0000 -0.0000 0.0000 0.0000 0.0000 0.3271 3.6747 10.4081 -1.2632 4.0141 -3.0154 -0.0000 0.0000 -0.0000 -5.6249 35.0975 -13.0015 -0.0000 0.0000 -0.0000 -33.1367 -2.6382 2.4051 -42.8022 -8.0397 -20.6002 -10.1130 5.3006 41.9307 14.2075 -4.5995 -1.1880 -0.0000 0.0000 -0.0000 34.8901 5.2329 3.5743 41.4903 4.7650 17.9439 3.6486 20.4532 -1.6914 -11.6438 2.8684 -0.8056 0.0000 0.0000 0.0000 -10.2298 11.1676 -19.1197 0.3359 2.3787 25.2608 4.2919 0.1265 -12.6908 0.0000 0.0000 -0.0000
-15.0732 38.3644 65.4139 175.1940 72.8712 177.0580 0.0000 0.0000 0.0000 -0.3073 -12.6463 -11.4853 -12.6204 -6.8638 55.7179 2.2319 -0.1361 -5.1034 0.0000 -0.0000 -0.0000 0.0000 0.0000 0.0000 0.9120 2.9104 10.5077 0.3295 2.9969 -2.8841 -0.0000 0.0000 -0.0000 -4.3188 35.2154 -11.2690 -0.0000 0.0000 -0.0000 -32.8464 -2.6109 2.3766 -43.3609 -11.0693 -18.0261 -11.1937 5.3928 38.5194 14.0742 -4.8692 -1.2071 -0.0000 0.0000 -0.0000 35.1002 5.2597 3.6040 40.5436 4.2853 15.1213 2.9009 21.1398 -4.2945 -11.7739 2.7089 -0.7999 0.0000 0.0000 0.0000 -7.4210 10.8737 -15.0354 0.0046 2.2536 24.8337 3.4514 0.1753 -14.2860 0.0000 0.0000 -0.0000
-13.7003 38.5727 65.3803 179.7060 71.7603 -179.9070 0.0000 0.0000 0.0000 -0.4767 -11.2268 -13.7668 -16.6866 -9.5754 54.8355 0.3256 -0.0333 -7.4774 0.0000 -0.0000 -0.0000 0.0000 0.0000 0.0000 1.5242 2.0904 10.7814 1.9023 1.9243 -2.8854 -0.0000 0.0000 -0.0000 -3.3252 35.0219 -9.8466 -0.0000 0.0000 -0.0000 -32.7578 -2.5904 2.3633 -43.3245 -14.3348 -15.6976 -11.9995 4.7832 35.5671 14.3104 -5.0023 -1.2437 -0.0000 0.0000 -0.0000 35.3213 5.2933 3.6376 39.5370 4.3966 10.1925 3.8731 20.0648 -2.7480 -12.0944 2.6900 -0.8207 0.0000 0.0000 0.0000 -4.4494 9.1295 -10.9598 -0.0005 3.1459 24.1034 3.0665 0.2018 -15.4134 0.0000 0.0000 -0.0000
-12.3316 38.7268 65.3903 -177.0090 70.3532 -177.8230 0.0000 0.0000 0.0000 -0.9304 -9.6417 -15.8520 -15.8568 -10.4291 51.2846 0.9273 -0.0549 -8.4826 0.0000 -0.0000 -0.0000 0.0000 0.0000 0.0000 1.7195 1.3867 11.1244 3.5601 0.9445 -3.1495 -0.0000 0.0000 -0.0000 -2.6906 34.6852 -8.5144 -0.0000 0.0000 -0.0000 -32.7077 -2.6003 2.3640 -42.9858 -18.0193 -13.8135 -12.4147 2.3005 34.3197 14.7695 -5.0937 -1.2964 -0.0000 0.0000 -0.0000 35.3094 5.2964 3.6378 38.7343 4.4502 4.4195 5.6076 18.0773 1.1591 -12.6404 2.6909 -0.8591 0.0000 0.0000 0.0000 -1.9885 6.9323 -7.1626 0.2511 4.0973 23.1206 2.4711 0.2051 -16.3322 0.0000 0.0000 -0.0000
-10.9542 38.8159 65.4299 -175.2040 68.8895 -176.7700 0.0000 0.0000 0.0000 -1.7387 -8.1366 -17.8325 -12.9533 -10.4071 45.6004 1.6630 -0.0759 -8.2150 0.0000 -0.0000 -0.0000 0.0000 0.0000 0.0000 1.5259 0.9498 11.2286 5.1170 0.2321 -3.4052 -0.0000 0.0000 -0.0000 -2.9686 34.7914 -7.5241 -0.0000 0.0000 -0.0000 -32.6656 -2.6556 2.3828 -42.5374 -22.1833 -12.3254 -12.6260 0.9273 33.7481 15.2797 -5.1139 -1.3457 -0.0000 0.0000 -0.0000 35.1758 5.2802 3.6192 38.0332 4.1308 -0.9564 7.3412 15.8387 5.0748 -13.0755 2.5986 -0.8799 0.0000 0.0000 0.0000 -0.1437 5.1466 -3.7690 0.4517 4.4209 21.8898 1.3365 0.1729 -17.2850 0.0000 0.0000 -0.0000
-9.5536 38.8787 65.4812 -174.2420 67.5215 -176.1730 0.0000 0.0000 0.0000 -2.7899 -6.7085 -19.2737 -10.4027 -10.8797 37.9259 2.1614 -0.1011 -7.4622 0.0000 -0.0000 -0.0000 0.0000 0.0000 0.0000 1.3421 0.6924 11.0247 6.2219 -0.2364 -3.5041 -0.0000 0.0000 -0.0000 -2.6102 33.3420 -6.7662 -0.0000 0.0000 -0.0000 -32.5686 -2.7040 2.3955 -42.0866 -26.4018 -11.1399 -12.7552 0.0732 33.2255 15.7531 -5.0249 -1.3777 -0.0000 0.0000 -0.0000 35.2097 5.2859 3.6245 37.2713 3.5662 -5.7710 8.9277 13.2996 8.9597 -13.0277 2.5119 -0.8676 0.0000 0.0000 0.0000 1.4681 4.2977 -0.6018 0.2660 3.8235 20.1818 0.3870 0.1298 -17.8741 0.0000 0.0000 -0.0000
-8.1375 38.9366 65.5495 -173.7410 66.0219 -175.8940 0.0000 0.0000 0.0000 -4.1664 -5.1756 -19.5389 -8.3599 -12.3955 28.2114 3.4269 -0.1661 -6.6515 0.0000 -0.0000 -0.0000 0.0000 0.0000 0.0000 1.3483 0.3746 10.8043 6.7763 -0.6718 -3.5043 -0.0000 0.0000 -0.0000 -2.1697 31.5868 -6.5153 -0.0000 0.0000 -0.0000 -32.2705 -2.7080 2.3785 -41.7831 -30.2401 -10.1459 -12.8385 -0.6421 32.5504 16.1188 -4.9775 -1.4049 -0.0000 0.0000 -0.0000 35.4633 5.3258 3.6638 36.6122 2.8911 -10.2387 10.1917 10.3926 13.3400 -12.6591 2.4941 -0.8404 0.0000 0.0000 0.0000 3.1454 4.2843 2.6061 -0.2482 2.3619 17.9402 0.1793 0.1167 -17.8043 0.0000 0.0000 -0.0000
-6.7140 39.0001 65.6368 -173.9000 64.2483 -176.2580 0.0000 0.0000 0.0000 -5.9795 -3.4999 -18.6492 -6.2640 -14.4029 17.1734 4.5986 -0.2601 -5.3464 0.0000 -0.0000 -0.0000 0.0000 0.0000 0.0000 1.3504 -0.0296 10.6128 6.9968 -1.1441 -3.2878 -0.0000 0.0000 -0.0000 -2.1336 30.2588 -6.7450 -0.0000 0.0000 -0.0000 -31.9611 -2.7107 2.3603 -41.5418 -33.6490 -9.2087 -12.9231 -1.2399 31.8353 16.3475 -5.2256 -1.4589 -0.0000 0.0000 -0.0000 35.7575 5.3743 3.7106 36.3180 2.0344 -13.8224 10.8319 7.5837 17.0616 -12.5120 2.4263 -0.8235 0.0000 0.0000 0.0000 4.7627 4.5704 6.0197 -0.7246 0.3637 15.0989 -0.0839 0.0993 -17.2024 0.0000 0.0000 -0.0000
-5.2683 39.0448 65.7398 -174.8580 62.3311 -177.2700 0.0000 0.0000 0.0000 -7.4862 -3.2849 -17.4296 -4.1344 -14.0756 6.5225 4.8058 -0.3195 -4.1007 0.0000 -0.0000 -0.0000 0.0000 0.0000 0.0000 1.0698 -0.3590 10.1675 7.2000 -1.5558 -2.8125 -0.0000 0.0000 -0.0000 -2.3618 28.4650 -6.8655 -0.0000 0.0000 -0.0000 -32.0608 -2.7504 2.3816 -41.1543 -36.5759 -8.3022 -13.0702 -1.5619 31.4471 16.5221 -5.7170 -1.5420 -0.0000 0.0000 -0.0000 35.9377 5.4037 3.7393 36.4064 0.8846 -16.1575 10.9164 5.1914 19.0597 -12.7355 2.2223 -0.8177 0.0000 0.0000 0.0000 6.1292 4.8666 9.2298 -0.9840 -1.9161 12.2432 -1.2760 0.0429 -16.3061 0.0000 0.0000 -0.0000
-3.7338 38.9883 65.8826 -176.2660 60.4823 -178.5710 0.0000 0.0000 0.0000 -8.1240 -5.2263 -16.7299 -2.6682 -9.6901 -0.8332 5.1469 -0.3223 -4.5193 0.0000 -0.0000 -0.0000 0.0000 0.0000 0.0000 0.3729 -0.5122 9.4697 7.5649 -1.8232 -2.3884 -0.0000 0.0000 -0.0000 -2.4640 26.5345 -6.4005 -0.0000 0.0000 -0.0000 -32.4737 -2.7826 2.4198 -40.8757 -38.5258 -7.2696 -13.2590 -1.8272 31.5583 16.7934 -6.0069 -1.6084 -0.0000 0.0000 -0.0000 36.0184 5.4155 3.7516 36.7687 -0.5327 -17.5398 10.6912 2.9505 19.8005 -12.8470 1.9954 -0.8018 0.0000 0.0000 0.0000 7.4825 5.2313 11.6276 -1.1666 -4.2982 10.8634 -2.9107 -0.0120 -15.4357 0.0000 0.0000 -0.0000
-2.0675 38.8146 66.1078 -177.4340 58.8997 -179.8660 0.0000 0.0000 0.0000 -8.8248 -5.5082 -16.6824 -2.0717 -6.2060 -2.4454 5.8519 -0.3075 -5.7708 0.0000 -0.0000 -0.0000 0.0000 0.0000 0.0000 -0.4935 -0.5036 9.0716 7.9246 -1.8951 -2.3551 -0.0000 0.0000 -0.0000 -2.0928 24.9343 -5.3741 -0.0000 0.0000 -0.0000 -32.6792 -2.7494 2.4199 -41.1083 -38.9291 -5.6001 -13.4231 -2.6731 31.4402 17.0898 -5.8360 -1.6140 -0.0000 0.0000 -0.0000 36.1750 5.4382 3.7756 37.3136 -2.0524 -18.8745 10.3459 0.4910 20.6198 -12.4231 1.8734 -0.7624 0.0000 0.0000 0.0000 9.3041 5.5546 13.5017 -1.4110 -6.6456 11.3043 -4.6617 -0.0488 -14.7040 0.0000 0.0000 -0.0000
-0.3047 38.5700 66.4206 -177.6800 57.8258 179.1070 0.0000 0.0000 0.0000 -8.3343 -5.2386 -16.8322 -2.2874 -4.6383 0.7388 5.9826 -0.3787 -4.3870 0.0000 -0.0000 -0.0000 0.0000 0.0000 0.0000 -0.8458 -0.3428 9.3427 7.8724 -1.6976 -2.5704 -0.0000 0.0000 -0.0000 -1.6690 23.8057 -4.2439 -0.0000 0.0000 -0.0000 -32.7453 -2.6573 2.3884 -41.4200 -37.7861 -3.1438 -13.4925 -4.2984 30.2213 17.0166 -5.5856 -1.5719 -0.0000 0.0000 -0.0000 36.5390 5.4887 3.8305 37.9414 -3.3861 -20.2793 9.9186 -2.0755 21.6598 -11.7059 1.8081 -0.7110 0.0000 0.0000 0.0000 11.6924 4.8147 15.2872 -1.7952 -7.9862 13.1724 -7.5717 -0.1002 -14.1165 0.0000 0.0000 -0.0000
